<?xml version="1.0" standalone="no"?>
<!DOCTYPE svg PUBLIC "-//W3C//DTD SVG 20010904//EN"
 "http://www.w3.org/TR/2001/REC-SVG-20010904/DTD/svg10.dtd">
<svg version="1.0" xmlns="http://www.w3.org/2000/svg"
 width="300.000000pt" height="300.000000pt" viewBox="0 0 300.000000 300.000000"
 preserveAspectRatio="xMidYMid meet">
<metadata>
Created by potrace 1.14, written by Peter Selinger 2001-2017
</metadata>
<g transform="translate(0.000000,300.000000) scale(0.100000,-0.100000)"
fill="#000000" stroke="none">
<path d="M2 1653 l3 -1278 32 -68 c42 -89 121 -168 210 -210 l68 -32 1343 -3
1342 -2 -2 1287 -3 1288 -28 57 c-43 88 -107 152 -195 195 l-76 38 -1348 3
-1348 2 2 -1277z m1570 836 c93 -20 170 -71 229 -152 l27 -37 -207 -464 c-178
-402 -208 -463 -223 -455 -9 5 -116 9 -237 9 l-221 0 0 -130 0 -130 180 0 c99
0 180 -4 180 -8 0 -4 -42 -102 -93 -217 l-94 -210 -336 -3 -337 -2 0 905 0
905 540 0 c361 0 557 -4 592 -11z m998 -409 l0 -220 -324 0 -324 0 94 211 c52
116 96 215 100 220 3 5 104 9 230 9 l224 0 0 -220z m-130 -690 l0 -200 -330 0
-330 0 0 -130 0 -130 395 0 395 0 0 -220 0 -220 -625 0 c-344 0 -625 3 -625 8
0 4 108 251 241 550 l241 542 319 0 319 0 0 -200z"/>
<path d="M940 1925 l0 -135 173 0 c194 0 235 8 271 51 31 36 36 112 10 160
-26 51 -61 59 -269 59 l-185 0 0 -135z"/>
</g>
</svg>
