<svg width="28" height="24" viewBox="0 0 28 24" fill="none" xmlns="http://www.w3.org/2000/svg">
<path d="M10.2431 15.3429C11.1837 15.3429 11.9493 15.0161 11.9493 13.9821C11.9493 12.9268 11.3095 12.5143 10.2923 12.5089H7.77668V15.3429H10.2431ZM9.94778 8.4H7.78215V10.8H10.1173C10.9431 10.8 11.5282 10.4464 11.5282 9.57321C11.5282 8.625 10.779 8.4 9.94778 8.4ZM17.0298 12.4071H20.4314C20.3384 11.4161 19.8134 10.8161 18.7634 10.8161C17.7626 10.8161 17.0954 11.4268 17.0298 12.4071ZM22.7501 0H5.25012C3.31965 0 1.75012 1.5375 1.75012 3.42857V20.5714C1.75012 22.4625 3.31965 24 5.25012 24H22.7501C24.6806 24 26.2501 22.4625 26.2501 20.5714V3.42857C26.2501 1.5375 24.6806 0 22.7501 0ZM20.8634 8.19643H16.6087V7.18393H20.8634V8.19643ZM12.3431 11.3411C13.6337 11.7 14.2572 12.8143 14.2572 14.1054C14.2572 16.1946 12.4689 17.0893 10.5603 17.1H5.46887V6.81429H10.4181C12.2173 6.81429 13.7759 7.3125 13.7759 9.35893C13.7759 10.3929 13.2837 10.9018 12.3431 11.3411ZM18.8345 9.27321C21.2134 9.27321 22.5314 11.1107 22.5314 13.3125C22.5314 13.3982 22.5259 13.4893 22.5204 13.5804C22.5204 13.6232 22.515 13.6607 22.515 13.6982H17.0353C17.0353 14.8875 17.6751 15.5893 18.9001 15.5893C19.5345 15.5893 20.3493 15.2571 20.5517 14.6196H22.3947C21.8259 16.3286 20.6501 17.1268 18.8345 17.1268C16.4392 17.1268 14.9462 15.5357 14.9462 13.2161C14.9462 10.9768 16.5157 9.27321 18.8345 9.27321Z" fill="#FAF8ED"/>
</svg>
