<svg width="28" height="24" viewBox="0 0 28 24" fill="none" xmlns="http://www.w3.org/2000/svg">
<path d="M24.5 0H3.49453C2.53203 0 1.75 0.776786 1.75 1.73036V22.2696C1.75 23.2232 2.53203 24 3.49453 24H24.5C25.4625 24 26.25 23.2232 26.25 22.2696V1.73036C26.25 0.776786 25.4625 0 24.5 0ZM9.15469 20.5714H5.52344V9.11786H9.16016V20.5714H9.15469ZM7.33906 3.42857C7.89747 3.42857 8.433 3.64587 8.82785 4.03266C9.22271 4.41946 9.44453 4.94406 9.44453 5.49107C9.44453 6.03808 9.22271 6.56269 8.82785 6.94948C8.433 7.33627 7.89747 7.55357 7.33906 7.55357C6.78066 7.55357 6.24512 7.33627 5.85027 6.94948C5.45542 6.56269 5.23359 6.03808 5.23359 5.49107C5.23359 4.94406 5.45542 4.41946 5.85027 4.03266C6.24512 3.64587 6.78066 3.42857 7.33906 3.42857ZM22.7664 20.5714H19.1352V15C19.1352 13.6714 19.1078 11.9625 17.2484 11.9625C15.3562 11.9625 15.0664 13.4089 15.0664 14.9036V20.5714H11.4352V9.11786H14.9187V10.6821H14.968C15.4547 9.78214 16.6414 8.83393 18.4078 8.83393C22.0828 8.83393 22.7664 11.2071 22.7664 14.2929V20.5714Z" fill="#FAF8ED"/>
</svg>
