<svg width="138" height="45" viewBox="0 0 138 45" fill="none" xmlns="http://www.w3.org/2000/svg">
<g clip-path="url(#clip0_702_115)">
<path d="M48 45H6.80248C3.04624 45 0 42.0096 0 38.3222V0H41.1975C44.9538 0 48 2.9904 48 6.6778V45Z" fill="#FAF8ED"/>
<path d="M14.9933 28.2701V24.1091H21.513C21.9169 24.1091 22.2209 24.2134 22.5164 24.4262C22.5334 24.4388 22.5525 24.4534 22.5695 24.4659L29.1488 9.96256C28.6641 9.18418 28.0349 8.4371 27.2824 7.8987C26.296 7.19544 25.129 6.84277 23.7791 6.84277H7.09814V35.1378H17.727L20.8434 28.2722H14.9933V28.2701ZM14.9933 13.7084H20.6648C21.0156 13.7084 21.3323 13.7814 21.6172 13.9275C21.8999 14.0736 22.1295 14.2989 22.3059 14.6057C22.4803 14.9125 22.5695 15.2255 22.5695 15.7576C22.5695 16.3419 22.4611 16.6904 22.2464 17.0076C22.0296 17.3269 21.7596 17.546 21.4365 17.665C21.1134 17.7839 20.7754 17.8695 20.4246 17.8695H14.9933V13.7084Z" fill="#2F2832"/>
<path d="M41.0063 31.392H28.4154V27.2309H38.9337V20.9893H28.7874L20.9624 38.2576H41.0063V31.392Z" fill="#2F2832"/>
<path d="M41.0061 16.8275V9.96191H33.7891L30.6748 16.8275H41.0061Z" fill="#2F2832"/>
</g>
<path d="M75.34 15.206C75.34 15.866 75.172 16.442 74.836 16.934C74.5 17.426 74.044 17.81 73.468 18.086C72.904 18.362 72.28 18.5 71.596 18.5H65.53V5.72H71.884C72.484 5.72 73 5.882 73.432 6.206C73.876 6.518 74.212 6.926 74.44 7.43C74.68 7.922 74.8 8.438 74.8 8.978C74.8 9.602 74.638 10.19 74.314 10.742C74.002 11.282 73.552 11.684 72.964 11.948C73.696 12.164 74.272 12.566 74.692 13.154C75.124 13.73 75.34 14.414 75.34 15.206ZM73.702 14.918C73.702 14.522 73.612 14.156 73.432 13.82C73.264 13.484 73.03 13.214 72.73 13.01C72.442 12.806 72.106 12.704 71.722 12.704H67.15V17.096H71.596C71.992 17.096 72.346 16.994 72.658 16.79C72.982 16.586 73.234 16.322 73.414 15.998C73.606 15.662 73.702 15.302 73.702 14.918ZM67.15 7.124V11.39H71.218C71.602 11.39 71.938 11.294 72.226 11.102C72.526 10.91 72.76 10.652 72.928 10.328C73.108 10.004 73.198 9.65 73.198 9.266C73.198 8.858 73.114 8.498 72.946 8.186C72.79 7.862 72.568 7.604 72.28 7.412C72.004 7.22 71.686 7.124 71.326 7.124H67.15ZM82.3222 10.49C81.5302 10.502 80.8282 10.706 80.2162 11.102C79.6162 11.486 79.1902 12.02 78.9382 12.704V18.5H77.3542V9.104H78.8302V11.282C79.1542 10.634 79.5802 10.112 80.1082 9.716C80.6482 9.308 81.2122 9.08 81.8002 9.032C81.9202 9.032 82.0222 9.032 82.1062 9.032C82.1902 9.032 82.2622 9.038 82.3222 9.05V10.49ZM87.7687 18.68C87.0607 18.68 86.4187 18.554 85.8427 18.302C85.2667 18.038 84.7687 17.684 84.3487 17.24C83.9287 16.784 83.6047 16.262 83.3767 15.674C83.1487 15.086 83.0347 14.468 83.0347 13.82C83.0347 13.16 83.1487 12.536 83.3767 11.948C83.6047 11.36 83.9287 10.844 84.3487 10.4C84.7687 9.944 85.2667 9.59 85.8427 9.338C86.4307 9.074 87.0727 8.942 87.7687 8.942C88.4767 8.942 89.1187 9.074 89.6947 9.338C90.2707 9.59 90.7687 9.944 91.1887 10.4C91.6207 10.844 91.9507 11.36 92.1787 11.948C92.4067 12.536 92.5207 13.16 92.5207 13.82C92.5207 14.468 92.4067 15.086 92.1787 15.674C91.9507 16.262 91.6267 16.784 91.2067 17.24C90.7867 17.684 90.2827 18.038 89.6947 18.302C89.1187 18.554 88.4767 18.68 87.7687 18.68ZM84.6547 13.838C84.6547 14.486 84.7927 15.074 85.0687 15.602C85.3567 16.13 85.7347 16.55 86.2027 16.862C86.6707 17.162 87.1927 17.312 87.7687 17.312C88.3447 17.312 88.8667 17.156 89.3347 16.844C89.8147 16.532 90.1927 16.112 90.4687 15.584C90.7567 15.044 90.9007 14.45 90.9007 13.802C90.9007 13.154 90.7567 12.566 90.4687 12.038C90.1927 11.51 89.8147 11.09 89.3347 10.778C88.8667 10.466 88.3447 10.31 87.7687 10.31C87.1927 10.31 86.6707 10.472 86.2027 10.796C85.7347 11.108 85.3567 11.528 85.0687 12.056C84.7927 12.584 84.6547 13.178 84.6547 13.838ZM98.5441 18.68C97.8361 18.68 97.1941 18.554 96.6181 18.302C96.0421 18.038 95.5441 17.684 95.1241 17.24C94.7041 16.784 94.3801 16.262 94.1521 15.674C93.9241 15.086 93.8101 14.468 93.8101 13.82C93.8101 13.16 93.9241 12.536 94.1521 11.948C94.3801 11.36 94.7041 10.844 95.1241 10.4C95.5441 9.944 96.0421 9.59 96.6181 9.338C97.2061 9.074 97.8481 8.942 98.5441 8.942C99.2521 8.942 99.8941 9.074 100.47 9.338C101.046 9.59 101.544 9.944 101.964 10.4C102.396 10.844 102.726 11.36 102.954 11.948C103.182 12.536 103.296 13.16 103.296 13.82C103.296 14.468 103.182 15.086 102.954 15.674C102.726 16.262 102.402 16.784 101.982 17.24C101.562 17.684 101.058 18.038 100.47 18.302C99.8941 18.554 99.2521 18.68 98.5441 18.68ZM95.4301 13.838C95.4301 14.486 95.5681 15.074 95.8441 15.602C96.1321 16.13 96.5101 16.55 96.9781 16.862C97.4461 17.162 97.9681 17.312 98.5441 17.312C99.1201 17.312 99.6421 17.156 100.11 16.844C100.59 16.532 100.968 16.112 101.244 15.584C101.532 15.044 101.676 14.45 101.676 13.802C101.676 13.154 101.532 12.566 101.244 12.038C100.968 11.51 100.59 11.09 100.11 10.778C99.6421 10.466 99.1201 10.31 98.5441 10.31C97.9681 10.31 97.4461 10.472 96.9781 10.796C96.5101 11.108 96.1321 11.528 95.8441 12.056C95.5681 12.584 95.4301 13.178 95.4301 13.838ZM111.84 18.5L108.582 13.928L106.8 15.602V18.5H105.216V5.36H106.8V13.946L111.66 9.122H113.37L109.626 13.01L113.55 18.5H111.84ZM118.141 18.68C117.361 18.68 116.629 18.554 115.945 18.302C115.261 18.038 114.673 17.648 114.181 17.132L114.793 16.016C115.333 16.52 115.873 16.88 116.413 17.096C116.953 17.312 117.505 17.42 118.069 17.42C118.717 17.42 119.245 17.3 119.653 17.06C120.061 16.808 120.265 16.442 120.265 15.962C120.265 15.614 120.157 15.356 119.941 15.188C119.737 15.02 119.443 14.882 119.059 14.774C118.675 14.654 118.219 14.522 117.691 14.378C117.043 14.186 116.497 13.982 116.053 13.766C115.609 13.55 115.273 13.28 115.045 12.956C114.817 12.632 114.703 12.224 114.703 11.732C114.703 11.132 114.859 10.628 115.171 10.22C115.483 9.8 115.909 9.482 116.449 9.266C117.001 9.05 117.625 8.942 118.321 8.942C119.017 8.942 119.647 9.05 120.211 9.266C120.775 9.482 121.261 9.8 121.669 10.22L120.949 11.318C120.577 10.934 120.169 10.652 119.725 10.472C119.281 10.28 118.783 10.184 118.231 10.184C117.907 10.184 117.589 10.226 117.277 10.31C116.965 10.382 116.707 10.52 116.503 10.724C116.299 10.916 116.197 11.192 116.197 11.552C116.197 11.852 116.275 12.092 116.431 12.272C116.599 12.44 116.839 12.584 117.151 12.704C117.475 12.824 117.865 12.956 118.321 13.1C119.029 13.304 119.641 13.508 120.157 13.712C120.685 13.916 121.093 14.18 121.381 14.504C121.669 14.828 121.813 15.278 121.813 15.854C121.813 16.742 121.477 17.438 120.805 17.942C120.133 18.434 119.245 18.68 118.141 18.68ZM74.206 37.06V38.5H65.53V25.72H74.044V27.16H67.15V31.3H73.144V32.65H67.15V37.06H74.206ZM75.4384 35.782C75.4384 35.182 75.6064 34.666 75.9424 34.234C76.2904 33.79 76.7644 33.448 77.3644 33.208C77.9644 32.968 78.6604 32.848 79.4524 32.848C79.8724 32.848 80.3164 32.884 80.7844 32.956C81.2524 33.016 81.6664 33.112 82.0264 33.244V32.56C82.0264 31.84 81.8104 31.276 81.3784 30.868C80.9464 30.448 80.3344 30.238 79.5424 30.238C79.0264 30.238 78.5284 30.334 78.0484 30.526C77.5804 30.706 77.0824 30.97 76.5544 31.318L75.9784 30.202C76.5904 29.782 77.2024 29.47 77.8144 29.266C78.4264 29.05 79.0624 28.942 79.7224 28.942C80.9224 28.942 81.8704 29.278 82.5664 29.95C83.2624 30.61 83.6104 31.534 83.6104 32.722V36.7C83.6104 36.892 83.6464 37.036 83.7184 37.132C83.8024 37.216 83.9344 37.264 84.1144 37.276V38.5C83.9584 38.524 83.8204 38.542 83.7004 38.554C83.5924 38.566 83.5024 38.572 83.4304 38.572C83.0584 38.572 82.7764 38.47 82.5844 38.266C82.4044 38.062 82.3024 37.846 82.2784 37.618L82.2424 37.024C81.8344 37.552 81.3004 37.96 80.6404 38.248C79.9804 38.536 79.3264 38.68 78.6784 38.68C78.0544 38.68 77.4964 38.554 77.0044 38.302C76.5124 38.038 76.1284 37.69 75.8524 37.258C75.5764 36.814 75.4384 36.322 75.4384 35.782ZM81.5584 36.448C81.7024 36.28 81.8164 36.112 81.9004 35.944C81.9844 35.764 82.0264 35.614 82.0264 35.494V34.324C81.6544 34.18 81.2644 34.072 80.8564 34C80.4484 33.916 80.0464 33.874 79.6504 33.874C78.8464 33.874 78.1924 34.036 77.6884 34.36C77.1964 34.672 76.9504 35.104 76.9504 35.656C76.9504 35.956 77.0284 36.25 77.1844 36.538C77.3524 36.814 77.5924 37.042 77.9044 37.222C78.2284 37.402 78.6244 37.492 79.0924 37.492C79.5844 37.492 80.0524 37.396 80.4964 37.204C80.9404 37 81.2944 36.748 81.5584 36.448ZM89.3652 38.68C88.5852 38.68 87.8532 38.554 87.1692 38.302C86.4852 38.038 85.8972 37.648 85.4052 37.132L86.0172 36.016C86.5572 36.52 87.0972 36.88 87.6372 37.096C88.1772 37.312 88.7292 37.42 89.2932 37.42C89.9412 37.42 90.4692 37.3 90.8772 37.06C91.2852 36.808 91.4892 36.442 91.4892 35.962C91.4892 35.614 91.3812 35.356 91.1652 35.188C90.9612 35.02 90.6672 34.882 90.2832 34.774C89.8992 34.654 89.4432 34.522 88.9152 34.378C88.2672 34.186 87.7212 33.982 87.2772 33.766C86.8332 33.55 86.4972 33.28 86.2692 32.956C86.0412 32.632 85.9272 32.224 85.9272 31.732C85.9272 31.132 86.0832 30.628 86.3952 30.22C86.7072 29.8 87.1332 29.482 87.6732 29.266C88.2252 29.05 88.8492 28.942 89.5452 28.942C90.2412 28.942 90.8712 29.05 91.4352 29.266C91.9992 29.482 92.4852 29.8 92.8932 30.22L92.1732 31.318C91.8012 30.934 91.3932 30.652 90.9492 30.472C90.5052 30.28 90.0072 30.184 89.4552 30.184C89.1312 30.184 88.8132 30.226 88.5012 30.31C88.1892 30.382 87.9312 30.52 87.7272 30.724C87.5232 30.916 87.4212 31.192 87.4212 31.552C87.4212 31.852 87.4992 32.092 87.6552 32.272C87.8232 32.44 88.0632 32.584 88.3752 32.704C88.6992 32.824 89.0892 32.956 89.5452 33.1C90.2532 33.304 90.8652 33.508 91.3812 33.712C91.9092 33.916 92.3172 34.18 92.6052 34.504C92.8932 34.828 93.0372 35.278 93.0372 35.854C93.0372 36.742 92.7012 37.438 92.0292 37.942C91.3572 38.434 90.4692 38.68 89.3652 38.68ZM99.7923 38.032C99.6603 38.092 99.4803 38.17 99.2523 38.266C99.0243 38.362 98.7603 38.446 98.4603 38.518C98.1603 38.59 97.8423 38.626 97.5063 38.626C97.1223 38.626 96.7683 38.56 96.4443 38.428C96.1203 38.284 95.8623 38.068 95.6703 37.78C95.4783 37.48 95.3823 37.108 95.3823 36.664V30.346H94.1043V29.104H95.3823V25.972H96.9663V29.104H99.0723V30.346H96.9663V36.178C96.9903 36.514 97.1043 36.766 97.3083 36.934C97.5123 37.09 97.7523 37.168 98.0283 37.168C98.3403 37.168 98.6283 37.114 98.8923 37.006C99.1563 36.898 99.3303 36.82 99.4143 36.772L99.7923 38.032ZM115.426 38.5H113.842V33.244C113.842 32.26 113.68 31.534 113.356 31.066C113.044 30.598 112.576 30.364 111.952 30.364C111.316 30.364 110.74 30.598 110.224 31.066C109.708 31.522 109.342 32.116 109.126 32.848V38.5H107.542V33.244C107.542 32.248 107.386 31.522 107.074 31.066C106.762 30.598 106.294 30.364 105.67 30.364C105.046 30.364 104.47 30.592 103.942 31.048C103.426 31.492 103.06 32.086 102.844 32.83V38.5H101.26V29.104H102.7V31.12C103.084 30.424 103.582 29.89 104.194 29.518C104.806 29.134 105.496 28.942 106.264 28.942C107.044 28.942 107.668 29.158 108.136 29.59C108.604 30.01 108.892 30.556 109 31.228C109.42 30.484 109.93 29.92 110.53 29.536C111.13 29.14 111.814 28.942 112.582 28.942C113.122 28.942 113.572 29.044 113.932 29.248C114.304 29.44 114.598 29.716 114.814 30.076C115.03 30.424 115.186 30.838 115.282 31.318C115.378 31.798 115.426 32.32 115.426 32.884V38.5ZM117.151 35.782C117.151 35.182 117.319 34.666 117.655 34.234C118.003 33.79 118.477 33.448 119.077 33.208C119.677 32.968 120.373 32.848 121.165 32.848C121.585 32.848 122.029 32.884 122.497 32.956C122.965 33.016 123.379 33.112 123.739 33.244V32.56C123.739 31.84 123.523 31.276 123.091 30.868C122.659 30.448 122.047 30.238 121.255 30.238C120.739 30.238 120.241 30.334 119.761 30.526C119.293 30.706 118.795 30.97 118.267 31.318L117.691 30.202C118.303 29.782 118.915 29.47 119.527 29.266C120.139 29.05 120.775 28.942 121.435 28.942C122.635 28.942 123.583 29.278 124.279 29.95C124.975 30.61 125.323 31.534 125.323 32.722V36.7C125.323 36.892 125.359 37.036 125.431 37.132C125.515 37.216 125.647 37.264 125.827 37.276V38.5C125.671 38.524 125.533 38.542 125.413 38.554C125.305 38.566 125.215 38.572 125.143 38.572C124.771 38.572 124.489 38.47 124.297 38.266C124.117 38.062 124.015 37.846 123.991 37.618L123.955 37.024C123.547 37.552 123.013 37.96 122.353 38.248C121.693 38.536 121.039 38.68 120.391 38.68C119.767 38.68 119.209 38.554 118.717 38.302C118.225 38.038 117.841 37.69 117.565 37.258C117.289 36.814 117.151 36.322 117.151 35.782ZM123.271 36.448C123.415 36.28 123.529 36.112 123.613 35.944C123.697 35.764 123.739 35.614 123.739 35.494V34.324C123.367 34.18 122.977 34.072 122.569 34C122.161 33.916 121.759 33.874 121.363 33.874C120.559 33.874 119.905 34.036 119.401 34.36C118.909 34.672 118.663 35.104 118.663 35.656C118.663 35.956 118.741 36.25 118.897 36.538C119.065 36.814 119.305 37.042 119.617 37.222C119.941 37.402 120.337 37.492 120.805 37.492C121.297 37.492 121.765 37.396 122.209 37.204C122.653 37 123.007 36.748 123.271 36.448ZM136.01 38.5H134.426V33.244C134.426 32.248 134.27 31.522 133.958 31.066C133.658 30.598 133.196 30.364 132.572 30.364C132.14 30.364 131.708 30.472 131.276 30.688C130.856 30.904 130.478 31.198 130.142 31.57C129.818 31.93 129.584 32.35 129.44 32.83V38.5H127.856V29.104H129.296V31.12C129.548 30.676 129.872 30.292 130.268 29.968C130.664 29.644 131.114 29.392 131.618 29.212C132.122 29.032 132.65 28.942 133.202 28.942C133.742 28.942 134.192 29.044 134.552 29.248C134.924 29.44 135.212 29.716 135.416 30.076C135.632 30.424 135.782 30.838 135.866 31.318C135.962 31.798 136.01 32.32 136.01 32.884V38.5Z" fill="#FAF8ED"/>
<defs>
<clipPath id="clip0_702_115">
<rect width="48" height="45" fill="white"/>
</clipPath>
</defs>
</svg>
